<svg width="54" height="81" viewBox="0 0 54 81" fill="none" xmlns="http://www.w3.org/2000/svg">
<path fill-rule="evenodd" clip-rule="evenodd" d="M19.9625 67.7472C20.2138 71.4549 20.5254 75.7821 20.655 77.3633C20.8333 79.54 21.0339 80.2383 21.4811 80.2383C21.8397 80.2383 21.9833 80.0077 21.8466 79.6513C21.7227 79.3285 21.2396 74.5416 20.7731 69.0137L19.9248 58.9629L21.3775 56.0782C29.9714 39.013 28.035 26.3963 17.1953 28.829L15.7743 29.1479L15.0715 27.3078C9.91459 13.8045 -2.36081 39.841 0.399108 58.4285C2.34114 71.5077 9.54033 73.417 17.1221 62.8636C19.4066 59.6837 19.4171 59.7017 19.9625 67.7472ZM18.4561 59.8865C17.1232 62.4099 13.5538 66.4665 11.6076 67.6697C5.33329 71.5488 1.24427 66.3709 0.743595 53.9124L0.554136 49.1981L1.37771 48.6213C1.83068 48.304 2.12802 47.838 2.03846 47.5857C1.24635 45.3545 9.89115 33.455 13.9689 31.1636L15.5615 30.2687L16.2015 33.1463C17.2225 37.7365 17.5505 40.1496 18.4293 49.5337L19.2568 58.3705L18.4561 59.8865ZM26.0188 40.567C25.4771 44.6361 24.1267 48.9986 22.0107 53.5155C19.9001 58.021 19.796 57.9622 19.2721 51.9702C18.4269 42.3028 17.9681 38.6168 17.0666 34.2503L16.1703 29.9092L17.3534 29.4968C21.4404 28.0721 24.5479 29.9269 25.7955 34.536L26.4834 37.0774L26.0188 40.567ZM15.1797 29.6352C10.289 32.9012 8.29358 34.8796 5.5363 39.1962C4.70043 40.5048 3.32453 42.8246 2.47875 44.3513L0.940982 47.127L1.1489 45.7392C2.20714 38.6753 3.35064 34.9074 5.98285 29.811C8.68321 24.5826 10.9717 22.9039 12.778 24.8265C13.5779 25.678 15.4607 29.4476 15.1797 29.6352ZM39.2365 27.1017C39.3455 27.1017 39.4348 27.1909 39.4348 27.3C39.4348 27.409 39.3455 27.4982 39.2365 27.4982C39.1274 27.4982 39.0382 27.409 39.0382 27.3C39.0382 27.1909 39.1274 27.1017 39.2365 27.1017ZM50.9579 16.7916C50.4578 16.7916 50.0997 17.4109 50.4165 17.7277C50.8631 18.1742 51.331 17.9997 51.331 17.3864C51.331 17.0593 51.1631 16.7916 50.9579 16.7916ZM51.7276 15.2055C51.5095 15.2055 51.331 15.3839 51.331 15.602C51.331 15.8201 51.5095 15.9985 51.7276 15.9985C51.9456 15.9985 52.1241 15.8201 52.1241 15.602C52.1241 15.3839 51.9456 15.2055 51.7276 15.2055ZM52.7423 13.6193C52.4023 13.6193 52.1241 13.7977 52.1241 14.0158C52.1241 14.2339 52.292 14.4124 52.4972 14.4124C52.7025 14.4124 52.9807 14.2339 53.1154 14.0158C53.2502 13.7977 53.0823 13.6193 52.7423 13.6193Z" fill="url(#paint0_linear_8_279)"/>
<path fill-rule="evenodd" clip-rule="evenodd" d="M24.9224 56.9414C26.1085 55.374 29.4313 50.3112 34.0963 42.9634C34.8246 41.8162 39.7768 33.6099 41.2234 31.153C41.4439 30.7786 42.2915 29.4427 43.1071 28.1844C43.9227 26.926 44.7739 25.0759 44.9986 24.0729C45.4343 22.1287 48.1742 13.9676 50.8995 6.4961C51.8115 3.99597 52.4312 2.07682 52.2767 2.2313C51.4375 3.07055 44.5935 14.7198 44.5918 15.3119C44.587 16.9946 42.3978 24.0616 41.1684 26.3627C40.7765 27.0963 40.3599 28.6762 40.2427 29.8736C40.0076 32.2752 39.1024 33.0005 38.3621 31.3806L37.947 30.4723L37.6532 32.7577C37.3307 35.266 36.8146 35.9275 36.0238 34.8461L35.5089 34.142L35.3005 35.0829C35.1858 35.6005 35.0431 36.5455 34.9833 37.1829C34.8311 38.8048 34.0465 38.8891 33.13 37.3821L32.3531 36.1046L32.5667 38.7395C32.8426 42.1429 32.5196 43.5106 31.503 43.2448C30.915 43.091 30.6431 43.3549 30.2914 44.4206C30.042 45.1763 29.5882 45.8905 29.283 46.0076C28.9778 46.1247 28.7281 46.6476 28.7281 47.1695C28.7281 48.8488 28.1144 48.1785 28.0539 46.4331C28.0218 45.5062 27.8759 44.0103 27.7298 43.1089C27.5548 42.0296 27.6212 41.3729 27.9242 41.1856C28.5989 40.7686 28.7975 41.1286 29.0298 43.1893C29.3231 45.7911 29.9185 44.5554 30.2065 40.7474C30.4529 37.4889 32.7416 36.7433 31.1469 39.0737C31.2305 42.6854 31.8213 42.7893 31.8435 39.1962C31.8647 35.7864 31.7306 34.3008 30.7201 26.7448C30.4248 24.5362 30.4076 23.281 30.6691 23.0194C31.179 22.5095 31.3577 23.3626 31.9395 29.0844C32.1945 31.5925 32.7693 34.6261 33.2169 35.8256L34.0306 38.0066L34.3139 37.0152C34.4697 36.47 34.615 35.0976 34.6367 33.9654C34.6834 31.5346 35.3122 30.8945 35.9254 32.6536C36.4936 34.2833 36.8266 33.8235 37.3859 30.6368C38.0633 26.7772 40.1665 23.692 40.2399 26.4502C40.2717 27.6444 42.8395 20.6749 43.5793 17.3864L43.8469 16.1968L44.1662 14.0158L44.665 13.2503L45.7911 11.2578C46.0951 10.9761 46.6932 9.95368 47.888 7.91148L47.8884 7.91083C48.1241 7.50786 48.3831 7.06519 48.6676 6.58068C54.6037 -3.52754 54.9043 -2.10415 49.7354 11.6366C47.8172 16.7359 46.9665 19.2493 46.7576 20.4354C46.6535 21.0261 46.3859 21.9894 46.1628 22.5761C45.4836 24.3625 45.926 24.015 47.7441 21.3338C48.6989 19.9259 49.5613 18.8552 49.6607 18.9545C49.76 19.0538 48.8714 20.6153 47.686 22.4245L47.5283 22.6653C45.3825 25.9399 45.0085 26.5107 44.861 27.135L44.0252 28.4715C44.1714 28.0453 42.6397 30.2839 40.6213 33.4464C37.3922 38.5057 36.0533 40.6879 32.5919 46.5322C29.9379 51.0136 24.5047 58.825 24.0418 58.825C23.7035 58.825 24.0372 58.1113 24.9224 56.9414ZM39.0512 28.9128C39.2983 28.6658 39.4348 28.9809 39.4348 29.7982C39.4348 31.2811 39.2258 31.4307 38.8992 30.1817C38.7718 29.6948 38.8403 29.1238 39.0512 28.9128ZM39.2365 27.1017C39.3455 27.1017 39.4348 27.1909 39.4348 27.3C39.4348 27.409 39.3455 27.4982 39.2365 27.4982C39.1274 27.4982 39.0382 27.409 39.0382 27.3C39.0382 27.1909 39.1274 27.1017 39.2365 27.1017ZM28.3655 41.6944C28.6126 41.4474 28.7491 41.7625 28.7491 42.5798C28.7491 44.0627 28.5401 44.2123 28.2135 42.9634C28.0862 42.4764 28.1546 41.9054 28.3655 41.6944Z" fill="url(#paint1_linear_8_279)"/>
<path fill-rule="evenodd" clip-rule="evenodd" d="M39.4348 27.3C39.4348 27.1909 39.3455 27.1017 39.2365 27.1017C39.1274 27.1017 39.0382 27.1909 39.0382 27.3C39.0382 27.409 39.1274 27.4982 39.2365 27.4982C39.3455 27.4982 39.4348 27.409 39.4348 27.3Z" fill="url(#paint2_linear_8_279)"/>
<defs>
<linearGradient id="paint0_linear_8_279" x1="26.6909" y1="0" x2="26.6909" y2="80.2383" gradientUnits="userSpaceOnUse">
<stop stop-color="#FF6F00"/>
<stop offset="1" stop-color="#FFB400"/>
</linearGradient>
<linearGradient id="paint1_linear_8_279" x1="26.6909" y1="0" x2="26.6909" y2="80.2383" gradientUnits="userSpaceOnUse">
<stop stop-color="#FF6F00"/>
<stop offset="1" stop-color="#FFB400"/>
</linearGradient>
<linearGradient id="paint2_linear_8_279" x1="26.6909" y1="0" x2="26.6909" y2="80.2383" gradientUnits="userSpaceOnUse">
<stop stop-color="#FF6F00"/>
<stop offset="1" stop-color="#FFB400"/>
</linearGradient>
</defs>
</svg>
