<svg width="123" height="54" viewBox="0 0 123 54" fill="none" xmlns="http://www.w3.org/2000/svg">
<path d="M39.8272 6.59783C20.9461 22.8237 21.2411 45.7275 0 53.8004C18.3848 42.1008 21.0416 21.379 36.3085 4.34985C37.6288 2.8771 39.2002 1.60896 41.0385 0.878918C45.2365 -0.788204 48.891 -0.350919 51.3328 4.53272C54.2829 10.433 53.3214 17.2184 56.3481 25.1838C57.7021 28.7474 59.2413 28.1696 61.9534 27.249L82.3095 18.6935C84.6696 17.5134 89.3898 17.0166 93.8151 19.5785C99.4204 22.8237 95.8802 52.0303 122.432 53.8004C92.34 53.8004 100.305 27.249 92.34 22.8237C89.6849 21.3486 85.742 21.176 82.3095 22.8237L63.1334 32.5592C60.6289 33.3501 58.3011 33.7073 56.4921 33.4227C52.3042 32.7637 52.5344 26.9028 51.6868 22.7489C50.4461 16.6684 48.9943 11.9732 47.2026 6.59783C46.0225 4.53272 42.2302 4.53272 39.8272 6.59783Z" fill="url(#paint0_linear_6_1945)"/>
<defs>
<linearGradient id="paint0_linear_6_1945" x1="61.2158" y1="0" x2="61.2158" y2="53.8004" gradientUnits="userSpaceOnUse">
<stop stop-color="#FF6F00"/>
<stop offset="1" stop-color="#FFB400"/>
</linearGradient>
</defs>
</svg>
